<svg width="40" height="40" viewBox="0 0 40 40" fill="none" xmlns="http://www.w3.org/2000/svg">
<path d="M10.6904 8.9864C9.77371 10.9687 10.1358 14.5203 10.2825 17.0041C9.29245 17.5336 8.02131 16.6044 7.30172 16.6044C6.55309 16.6044 5.65932 17.0793 5.51876 17.7873C5.41793 18.2976 5.65474 19.041 7.35366 19.6885C8.01062 19.9392 9.57357 20.2342 9.93566 21.0572C10.4444 22.2135 7.32311 27.5513 2.4219 28.3301C2.23686 28.3596 2.06963 28.4541 1.95233 28.5954C1.83503 28.7366 1.77591 28.9148 1.78633 29.0955C1.87189 30.5336 5.21168 31.097 6.69212 31.3183C6.84337 31.5159 6.9656 32.3507 7.15963 32.9864C7.24671 33.2711 7.4713 33.6118 8.04881 33.6118C8.80202 33.6118 10.0533 33.0513 12.2319 33.3994C14.3678 33.743 16.3754 36.6663 20.23 36.6663C23.8127 36.6663 25.9501 33.7298 28.0066 33.3994C29.1967 33.2091 30.2188 33.2696 31.3616 33.4849C32.1484 33.6339 32.8543 33.7165 33.0789 32.9702C33.276 32.3256 33.3967 31.5071 33.5449 31.3138C35.0116 31.0941 38.3666 30.5321 38.4506 29.0941C38.4611 28.9133 38.402 28.7352 38.2847 28.5939C38.1673 28.4526 38.0001 28.3581 37.8151 28.3286C32.9964 27.5616 29.7803 22.2401 30.3013 21.0557C30.6619 20.2342 32.2141 19.9422 32.8833 19.687C34.127 19.2135 34.7503 18.6309 34.7365 17.9569C34.7197 17.0941 33.6442 16.5793 32.8528 16.5793C32.0476 16.5793 30.8911 17.4997 29.9545 17.0012C30.1012 14.4967 30.4617 10.9613 29.5466 8.9805C27.8125 5.22976 23.9548 3.33301 20.0986 3.33301C16.2669 3.33301 12.4382 5.20321 10.6904 8.9864Z" stroke="#BBBBBB"/>
</svg>
