<svg width="40" height="40" viewBox="0 0 40 40" fill="none" xmlns="http://www.w3.org/2000/svg">
<path d="M24.7024 13.7592L23.9063 13.1743L23.9063 14.1622L23.9064 25.0962C23.9064 30.303 19.805 34.5 14.775 34.5C12.914 34.5 11.1835 33.9274 9.7398 32.9427C8.1484 31.2512 7.16797 28.9456 7.16797 26.4004C7.16797 21.4387 10.8928 17.3935 15.5964 17.0245V20.1236C15.3243 20.0756 15.0445 20.0506 14.7593 20.0506C12.0367 20.0506 9.85357 22.316 9.85357 25.0807C9.85357 26.9965 10.8992 28.6673 12.445 29.5167C13.3412 30.6702 14.7259 31.4151 16.2842 31.4151C19.0011 31.4151 21.1806 29.1589 21.1902 26.402V26.4002V5.5H24.0753C24.5403 7.57015 25.788 9.3345 27.4849 10.4447C28.4642 11.5254 29.7332 12.3297 31.168 12.7252V16.0409C28.763 15.9395 26.5407 15.11 24.7024 13.7592Z" stroke="#BBBBBB"/>
</svg>
