<svg width="40" height="38" viewBox="0 0 40 38" fill="none" xmlns="http://www.w3.org/2000/svg">
<path d="M17.6061 24.1253L6.69842 36.6255H1.8854L15.4939 21.0256L15.7622 20.7181L15.5147 20.3937L1.0102 1.37688H12.4079L20.9893 12.7579L21.3602 13.2497L21.7652 12.7857L31.7272 1.37402H36.5343L23.8576 15.8995L23.5907 16.2054L23.8351 16.5294L38.9964 36.6255H27.9045L18.3803 24.1506L18.0087 23.6639L17.6061 24.1253ZM28.9453 33.7487L29.0954 33.9454H29.3429H32.7429H33.7465L33.142 33.1443L11.1991 4.06145L11.0491 3.86259H10.8H7.15429H6.14391L6.75677 4.66588L28.9453 33.7487Z" stroke="#BBBBBB"/>
</svg>
