<svg width="24" height="24" viewBox="0 0 24 24" fill="none" xmlns="http://www.w3.org/2000/svg">
<path d="M24 13.2V7.19998L18 3.59998L12 7.19998L6 3.59998L0 7.19998V13.2L12 20.4L24 13.2ZM8.4 10.8H6V13.2H4.8V10.8H2.4V9.59998H4.8V7.19998H6V9.59998H8.4V10.8ZM15.6 13.2C15.2817 13.2 14.9765 13.0735 14.7515 12.8485C14.5264 12.6235 14.4 12.3182 14.4 12C14.4 11.34 14.94 10.8 15.6 10.8C16.26 10.8 16.8 11.34 16.8 12C16.8 12.66 16.26 13.2 15.6 13.2ZM19.2 10.8C19.0424 10.8 18.8864 10.7689 18.7408 10.7086C18.5952 10.6483 18.4629 10.5599 18.3515 10.4485C18.24 10.3371 18.1517 10.2048 18.0913 10.0592C18.031 9.91361 18 9.75756 18 9.59998C18 8.93998 18.54 8.39998 19.2 8.39998C19.86 8.39998 20.4 8.93998 20.4 9.59998C20.4 10.26 19.86 10.8 19.2 10.8Z" fill="#FF0000"/>
</svg>
