<svg width="107" height="38" viewBox="0 0 107 38" fill="none" xmlns="http://www.w3.org/2000/svg">
<path d="M0 8C0 3.58172 3.58172 0 8 0H99C103.418 0 107 3.58172 107 8V30C107 34.4183 103.418 38 99 38H8C3.58172 38 0 34.4183 0 30V8Z" fill="#2563EB"/>
<path d="M14.916 19H23.0827" stroke="white" stroke-linecap="round" stroke-linejoin="round"/>
<path d="M19 14.9165V23.0832" stroke="white" stroke-linecap="round" stroke-linejoin="round"/>
<path d="M36.5533 24H34.4439L38.2845 13.0909H40.7241L44.57 24H42.4606L39.5469 15.3281H39.4617L36.5533 24ZM36.6225 19.7227H42.3754V21.31H36.6225V19.7227ZM48.7838 24.1438C48.1411 24.1438 47.5658 23.9787 47.058 23.6484C46.5502 23.3182 46.1489 22.8388 45.8541 22.2102C45.5594 21.5817 45.412 20.8182 45.412 19.9197C45.412 19.0107 45.5612 18.2436 45.8595 17.6186C46.1613 16.9901 46.5679 16.516 47.0793 16.1964C47.5906 15.8732 48.1606 15.7116 48.7892 15.7116C49.2686 15.7116 49.6627 15.7933 49.9717 15.9567C50.2806 16.1165 50.5257 16.31 50.7068 16.5373C50.8879 16.761 51.0281 16.9723 51.1276 17.1712H51.2075V13.0909H53.1411V24H51.2448V22.7109H51.1276C51.0281 22.9098 50.8843 23.1211 50.6961 23.3448C50.5079 23.565 50.2593 23.7532 49.9504 23.9094C49.6414 24.0657 49.2526 24.1438 48.7838 24.1438ZM49.3218 22.5618C49.7302 22.5618 50.0782 22.4517 50.3659 22.2315C50.6535 22.0078 50.8719 21.6971 51.021 21.2994C51.1702 20.9016 51.2448 20.4382 51.2448 19.9091C51.2448 19.38 51.1702 18.9201 51.021 18.5295C50.8754 18.1388 50.6588 17.8352 50.3712 17.6186C50.0871 17.402 49.7373 17.2937 49.3218 17.2937C48.8921 17.2937 48.5335 17.4055 48.2458 17.6293C47.9582 17.853 47.7416 18.1619 47.596 18.5561C47.4504 18.9503 47.3776 19.4013 47.3776 19.9091C47.3776 20.4205 47.4504 20.8768 47.596 21.2781C47.7451 21.6758 47.9635 21.9901 48.2512 22.2209C48.5423 22.4482 48.8992 22.5618 49.3218 22.5618ZM58.3071 24.1438C57.6643 24.1438 57.089 23.9787 56.5812 23.6484C56.0734 23.3182 55.6721 22.8388 55.3774 22.2102C55.0826 21.5817 54.9353 20.8182 54.9353 19.9197C54.9353 19.0107 55.0844 18.2436 55.3827 17.6186C55.6846 16.9901 56.0912 16.516 56.6025 16.1964C57.1139 15.8732 57.6838 15.7116 58.3124 15.7116C58.7918 15.7116 59.186 15.7933 59.4949 15.9567C59.8039 16.1165 60.0489 16.31 60.23 16.5373C60.4111 16.761 60.5514 16.9723 60.6508 17.1712H60.7307V13.0909H62.6643V24H60.768V22.7109H60.6508C60.5514 22.9098 60.4076 23.1211 60.2194 23.3448C60.0311 23.565 59.7826 23.7532 59.4736 23.9094C59.1647 24.0657 58.7758 24.1438 58.3071 24.1438ZM58.8451 22.5618C59.2534 22.5618 59.6015 22.4517 59.8891 22.2315C60.1767 22.0078 60.3951 21.6971 60.5443 21.2994C60.6934 20.9016 60.768 20.4382 60.768 19.9091C60.768 19.38 60.6934 18.9201 60.5443 18.5295C60.3987 18.1388 60.1821 17.8352 59.8944 17.6186C59.6103 17.402 59.2605 17.2937 58.8451 17.2937C58.4154 17.2937 58.0567 17.4055 57.7691 17.6293C57.4814 17.853 57.2648 18.1619 57.1192 18.5561C56.9736 18.9503 56.9008 19.4013 56.9008 19.9091C56.9008 20.4205 56.9736 20.8768 57.1192 21.2781C57.2684 21.6758 57.4868 21.9901 57.7744 22.2209C58.0656 22.4482 58.4225 22.5618 58.8451 22.5618ZM75.9833 16.5746C75.8945 16.2869 75.772 16.0295 75.6157 15.8022C75.463 15.5714 75.2784 15.3743 75.0617 15.2109C74.8487 15.0476 74.6036 14.9251 74.3266 14.8434C74.0497 14.7582 73.7478 14.7156 73.4211 14.7156C72.8352 14.7156 72.3132 14.8629 71.8551 15.1577C71.397 15.4524 71.0365 15.8857 70.7737 16.4574C70.5145 17.0256 70.3849 17.718 70.3849 18.5348C70.3849 19.3587 70.5145 20.0565 70.7737 20.6282C71.033 21.1999 71.3934 21.6349 71.8551 21.9332C72.3167 22.228 72.8529 22.3754 73.4637 22.3754C74.0177 22.3754 74.4971 22.2688 74.9019 22.0558C75.3103 21.8427 75.6246 21.5408 75.8448 21.1502C76.0649 20.756 76.175 20.2944 76.175 19.7653L76.6225 19.8345H73.6608V18.2898H78.0873V19.6001C78.0873 20.5341 77.8884 21.342 77.4907 22.0238C77.093 22.7056 76.5461 23.2312 75.8501 23.6005C75.1541 23.9663 74.3551 24.1491 73.4531 24.1491C72.4481 24.1491 71.5656 23.9237 70.8057 23.4727C70.0493 23.0181 69.458 22.3736 69.0319 21.5391C68.6093 20.701 68.398 19.7067 68.398 18.5561C68.398 17.6754 68.5223 16.8888 68.7709 16.1964C69.023 15.5039 69.3746 14.9162 69.8256 14.4332C70.2766 13.9467 70.8057 13.5774 71.4129 13.3253C72.0202 13.0696 72.6807 12.9418 73.3945 12.9418C73.9982 12.9418 74.561 13.0305 75.083 13.2081C75.6051 13.3821 76.0685 13.6307 76.4733 13.9538C76.8817 14.277 77.2173 14.6605 77.4801 15.1044C77.7428 15.5483 77.9151 16.0384 77.9967 16.5746H75.9833ZM80.5007 24V15.8182H82.429V24H80.5007ZM81.4702 14.657C81.1648 14.657 80.902 14.5558 80.6818 14.3533C80.4617 14.1474 80.3516 13.9006 80.3516 13.6129C80.3516 13.3217 80.4617 13.0749 80.6818 12.8725C80.902 12.6665 81.1648 12.5636 81.4702 12.5636C81.7791 12.5636 82.0419 12.6665 82.2585 12.8725C82.4787 13.0749 82.5888 13.3217 82.5888 13.6129C82.5888 13.9006 82.4787 14.1474 82.2585 14.3533C82.0419 14.5558 81.7791 14.657 81.4702 14.657ZM88.631 15.8182V17.3097H83.7944V15.8182H88.631ZM85.0036 24V15.0458C85.0036 14.4954 85.1172 14.0373 85.3445 13.6715C85.5753 13.3058 85.8842 13.0323 86.2713 12.8512C86.6584 12.6701 87.0881 12.5795 87.5604 12.5795C87.8942 12.5795 88.1907 12.6062 88.4499 12.6594C88.7092 12.7127 88.9009 12.7607 89.0252 12.8033L88.6417 14.2947C88.56 14.2699 88.457 14.245 88.3327 14.2202C88.2085 14.1918 88.07 14.1776 87.9173 14.1776C87.5586 14.1776 87.3047 14.2646 87.1555 14.4386C87.0099 14.609 86.9371 14.854 86.9371 15.1737V24H85.0036ZM94.3017 15.8182V17.3097H89.5983V15.8182H94.3017ZM90.7595 13.858H92.6877V21.5391C92.6877 21.7983 92.7268 21.9972 92.8049 22.1357C92.8866 22.2706 92.9931 22.3629 93.1245 22.4126C93.2559 22.4624 93.4015 22.4872 93.5613 22.4872C93.6821 22.4872 93.7922 22.4783 93.8916 22.4606C93.9946 22.4428 94.0727 22.4268 94.126 22.4126L94.4509 23.9201C94.3479 23.9556 94.2005 23.9947 94.0088 24.0373C93.8206 24.0799 93.5897 24.1048 93.3163 24.1119C92.8333 24.1261 92.3983 24.0533 92.0113 23.8935C91.6242 23.7301 91.317 23.478 91.0897 23.1371C90.866 22.7962 90.7559 22.37 90.7595 21.8587V13.858Z" fill="white"/>
</svg>
