<svg width="25" height="24" viewBox="0 0 25 24" fill="none" xmlns="http://www.w3.org/2000/svg">
<path d="M24.9299 12C24.9299 5.37262 19.5573 0 12.9299 0C6.30256 0 0.929932 5.37262 0.929932 12C0.929932 17.9895 5.31818 22.954 11.0549 23.8542V15.4688H8.00806V12H11.0549V9.35625C11.0549 6.34875 12.8465 4.6875 15.5876 4.6875C16.9004 4.6875 18.2737 4.92188 18.2737 4.92188V7.875H16.7606C15.2698 7.875 14.8049 8.80003 14.8049 9.74906V12H18.1331L17.601 15.4688H14.8049V23.8542C20.5417 22.954 24.9299 17.9896 24.9299 12Z" fill="#1877F2"/>
<path d="M17.601 15.4688L18.1331 12H14.8049V9.74906C14.8049 8.79994 15.2698 7.875 16.7606 7.875H18.2737V4.92188C18.2737 4.92188 16.9004 4.6875 15.5875 4.6875C12.8465 4.6875 11.0549 6.34875 11.0549 9.35625V12H8.00806V15.4688H11.0549V23.8542C11.6752 23.9514 12.3021 24.0001 12.9299 24C13.5578 24.0001 14.1847 23.9514 14.8049 23.8542V15.4688H17.601Z" fill="white"/>
</svg>
