<svg width="25" height="24" viewBox="0 0 25 24" fill="none" xmlns="http://www.w3.org/2000/svg">
<path d="M19.3049 0H6.55493C3.44833 0 0.929932 2.5184 0.929932 5.625V18.375C0.929932 21.4816 3.44833 24 6.55493 24H19.3049C22.4115 24 24.9299 21.4816 24.9299 18.375V5.625C24.9299 2.5184 22.4115 0 19.3049 0Z" fill="url(#paint0_radial_73_8854)"/>
<path d="M19.3049 0H6.55493C3.44833 0 0.929932 2.5184 0.929932 5.625V18.375C0.929932 21.4816 3.44833 24 6.55493 24H19.3049C22.4115 24 24.9299 21.4816 24.9299 18.375V5.625C24.9299 2.5184 22.4115 0 19.3049 0Z" fill="url(#paint1_radial_73_8854)"/>
<path d="M12.9308 2.625C10.3847 2.625 10.0651 2.63616 9.06518 2.68163C8.06712 2.72738 7.38584 2.88534 6.78978 3.11719C6.17309 3.35662 5.65006 3.67697 5.12899 4.19822C4.60746 4.71937 4.28712 5.24241 4.04693 5.85881C3.81443 6.45506 3.65628 7.13662 3.61137 8.13422C3.56665 9.13425 3.55493 9.45394 3.55493 12.0001C3.55493 14.5463 3.56618 14.8648 3.61156 15.8647C3.65749 16.8628 3.81546 17.5441 4.04712 18.1402C4.28674 18.7568 4.60709 19.2799 5.12834 19.8009C5.64931 20.3225 6.17234 20.6436 6.78856 20.883C7.38509 21.1148 8.06646 21.2728 9.06434 21.3186C10.0644 21.364 10.3837 21.3752 12.9297 21.3752C15.476 21.3752 15.7946 21.364 16.7945 21.3186C17.7926 21.2728 18.4746 21.1148 19.0711 20.883C19.6875 20.6436 20.2098 20.3225 20.7307 19.8009C21.2522 19.2799 21.5725 18.7568 21.8127 18.1404C22.0432 17.5441 22.2014 16.8626 22.2483 15.8649C22.2932 14.865 22.3049 14.5463 22.3049 12.0001C22.3049 9.45394 22.2932 9.13444 22.2483 8.13441C22.2014 7.13634 22.0432 6.45516 21.8127 5.85909C21.5725 5.24241 21.2522 4.71937 20.7307 4.19822C20.2092 3.67678 19.6877 3.35644 19.0706 3.11728C18.4729 2.88534 17.7912 2.72728 16.7932 2.68163C15.7931 2.63616 15.4748 2.625 12.9279 2.625H12.9308ZM12.0897 4.31447C12.3394 4.31409 12.6179 4.31447 12.9308 4.31447C15.434 4.31447 15.7306 4.32347 16.7191 4.36838C17.6332 4.41019 18.1293 4.56291 18.4598 4.69125C18.8973 4.86112 19.2092 5.06428 19.5372 5.3925C19.8653 5.72062 20.0683 6.03309 20.2387 6.47062C20.367 6.80062 20.5199 7.29675 20.5616 8.21081C20.6065 9.19913 20.6162 9.49594 20.6162 11.9979C20.6162 14.4999 20.6065 14.7968 20.5616 15.7851C20.5197 16.6991 20.367 17.1952 20.2387 17.5253C20.0688 17.9629 19.8653 18.2744 19.5372 18.6023C19.209 18.9305 18.8975 19.1335 18.4598 19.3035C18.1297 19.4324 17.6332 19.5848 16.7191 19.6266C15.7308 19.6715 15.434 19.6812 12.9308 19.6812C10.4275 19.6812 10.1307 19.6715 9.14253 19.6266C8.22846 19.5844 7.73234 19.4317 7.40159 19.3033C6.96415 19.1333 6.65159 18.9303 6.32346 18.6022C5.99534 18.274 5.79228 17.9623 5.62193 17.5246C5.49359 17.1945 5.34068 16.6984 5.29906 15.7843C5.25415 14.796 5.24515 14.4992 5.24515 11.9956C5.24515 9.49209 5.25415 9.19678 5.29906 8.20847C5.34087 7.29441 5.49359 6.79828 5.62193 6.46781C5.7919 6.03028 5.99534 5.71781 6.32356 5.38969C6.65168 5.06156 6.96415 4.85841 7.40168 4.68816C7.73215 4.55925 8.22846 4.40691 9.14253 4.36491C10.0074 4.32581 10.3425 4.31409 12.0897 4.31212V4.31447ZM17.9352 5.87109C17.3141 5.87109 16.8102 6.37453 16.8102 6.99572C16.8102 7.61681 17.3141 8.12072 17.9352 8.12072C18.5562 8.12072 19.0602 7.61681 19.0602 6.99572C19.0602 6.37463 18.5562 5.87072 17.9352 5.87072V5.87109ZM12.9308 7.18556C10.272 7.18556 8.11634 9.34125 8.11634 12.0001C8.11634 14.6589 10.272 16.8136 12.9308 16.8136C15.5896 16.8136 17.7446 14.6589 17.7446 12.0001C17.7446 9.34134 15.5894 7.18556 12.9306 7.18556H12.9308ZM12.9308 8.87503C14.6566 8.87503 16.0558 10.2741 16.0558 12.0001C16.0558 13.7259 14.6566 15.1252 12.9308 15.1252C11.2048 15.1252 9.80581 13.7259 9.80581 12.0001C9.80581 10.2741 11.2048 8.87503 12.9308 8.87503Z" fill="white"/>
<defs>
<radialGradient id="paint0_radial_73_8854" cx="0" cy="0" r="1" gradientUnits="userSpaceOnUse" gradientTransform="translate(7.30493 25.8485) rotate(-90) scale(23.7858 22.1227)">
<stop stop-color="#FFDD55"/>
<stop offset="0.1" stop-color="#FFDD55"/>
<stop offset="0.5" stop-color="#FF543E"/>
<stop offset="1" stop-color="#C837AB"/>
</radialGradient>
<radialGradient id="paint1_radial_73_8854" cx="0" cy="0" r="1" gradientUnits="userSpaceOnUse" gradientTransform="translate(-3.09016 1.72884) rotate(78.681) scale(10.6324 43.827)">
<stop stop-color="#3771C8"/>
<stop offset="0.128" stop-color="#3771C8"/>
<stop offset="1" stop-color="#6600FF" stop-opacity="0"/>
</radialGradient>
</defs>
</svg>
