<svg width="25" height="24" viewBox="0 0 25 24" fill="none" xmlns="http://www.w3.org/2000/svg">
<path d="M7.34314 5.39204C6.79313 6.58142 7.01038 8.71239 7.09839 10.2027C6.50437 10.5204 5.74169 9.96283 5.30994 9.96283C4.86076 9.96283 4.3245 10.2478 4.24016 10.6726C4.17966 10.9788 4.32175 11.4248 5.3411 11.8133C5.73528 11.9637 6.67305 12.1407 6.8903 12.6345C7.19556 13.3283 5.32277 16.531 2.38205 16.9982C2.27102 17.016 2.17069 17.0726 2.1003 17.1574C2.02992 17.2422 1.99445 17.3491 2.00071 17.4575C2.05204 18.3204 4.05591 18.6584 4.94418 18.7912C5.03493 18.9097 5.10826 19.4106 5.22468 19.792C5.27693 19.9628 5.41169 20.1673 5.75819 20.1673C6.21012 20.1673 6.96088 19.831 8.26808 20.0398C9.5496 20.246 10.7541 22 13.0669 22C15.2165 22 16.499 20.2381 17.7328 20.0398C18.4469 19.9257 19.0602 19.9619 19.7459 20.0912C20.218 20.1805 20.6415 20.2301 20.7762 19.7823C20.8945 19.3956 20.9669 18.9044 21.0558 18.7885C21.9358 18.6566 23.9489 18.3195 23.9993 17.4566C24.0055 17.3482 23.9701 17.2413 23.8997 17.1565C23.8293 17.0718 23.729 17.0151 23.618 16.9973C20.7267 16.5372 18.7971 13.3442 19.1097 12.6336C19.326 12.1407 20.2574 11.9655 20.6589 11.8124C21.4051 11.5283 21.7791 11.1788 21.7708 10.7743C21.7607 10.2566 21.1154 9.94779 20.6406 9.94779C20.1575 9.94779 19.4635 10.5 18.9016 10.2009C18.9896 8.69823 19.2059 6.57699 18.6569 5.3885C17.6164 3.13805 15.3018 2 12.9881 2C10.689 2 8.39183 3.12212 7.34314 5.39204Z" fill="#FFFC00" stroke="black"/>
</svg>
