<svg width="25" height="24" viewBox="0 0 25 24" fill="none" xmlns="http://www.w3.org/2000/svg">
<path d="M17.5627 8.64172C19.1085 9.74613 21.0022 10.396 23.0474 10.396V6.46244C22.6603 6.46259 22.2743 6.4222 21.8956 6.34194V9.43819C19.8505 9.43819 17.9571 8.78845 16.411 7.68412V15.7114C16.411 19.7271 13.1539 22.9821 9.1365 22.9821C7.6375 22.9821 6.24417 22.5292 5.08679 21.7523C6.40779 23.1024 8.24999 23.9398 10.288 23.9398C14.3058 23.9398 17.5629 20.6848 17.5629 16.6689V8.64172H17.5627ZM18.9837 4.67328C18.1937 3.81068 17.675 2.69593 17.5627 1.46348V0.957581H16.4712C16.746 2.52395 17.6832 3.86216 18.9837 4.67328ZM7.62781 18.6709C7.18641 18.0926 6.94782 17.3849 6.94894 16.6574C6.94894 14.8208 8.43868 13.3316 10.2767 13.3316C10.6191 13.3315 10.9596 13.384 11.2861 13.4875V9.46599C10.9046 9.41377 10.5196 9.39151 10.1347 9.3997V12.5298C9.8081 12.4263 9.46747 12.3738 9.12483 12.3741C7.28693 12.3741 5.79727 13.863 5.79727 15.6999C5.79727 16.9987 6.54185 18.1231 7.62781 18.6709Z" fill="#FF004F"/>
<path d="M16.411 7.68404C17.9572 8.78837 19.8505 9.4381 21.8956 9.4381V6.34186C20.754 6.09879 19.7435 5.5026 18.9836 4.67328C17.6831 3.86208 16.746 2.52387 16.4713 0.957581H13.6043V16.6687C13.5977 18.5003 12.1105 19.9834 10.2765 19.9834C9.19587 19.9834 8.2357 19.4685 7.62767 18.6708C6.54188 18.1231 5.79722 16.9986 5.79722 15.7C5.79722 13.8633 7.28687 12.3741 9.12478 12.3741C9.47692 12.3741 9.81631 12.4289 10.1347 12.5299V9.39979C6.18776 9.48131 3.01355 12.7046 3.01355 16.6688C3.01355 18.6477 3.80398 20.4417 5.0869 21.7525C6.24428 22.5292 7.63752 22.9823 9.13661 22.9823C13.1541 22.9823 16.4111 19.727 16.4111 15.7114L16.411 7.68404Z" fill="black"/>
<path d="M21.8956 6.34179V5.50477C20.8662 5.50627 19.8571 5.21813 18.9837 4.6733C19.7568 5.51927 20.7748 6.10265 21.8956 6.34196M16.4712 0.957517C16.445 0.807854 16.4249 0.657193 16.4109 0.505903V0H12.4523V15.7113C12.446 17.5428 10.9588 19.0258 9.12471 19.0258C8.60476 19.0266 8.09192 18.905 7.62761 18.671C8.23564 19.4686 9.1958 19.9833 10.2765 19.9833C12.1104 19.9833 13.5977 18.5004 13.6042 16.6688V0.9576L16.4712 0.957517ZM10.1349 9.39972V8.5085C9.80407 8.46333 9.47058 8.44072 9.13671 8.4408C5.11878 8.4408 1.86182 11.696 1.86182 15.7113C1.86182 18.2287 3.14184 20.4473 5.087 21.7524C3.80408 20.4416 3.01365 18.6476 3.01365 16.6687C3.01365 12.7046 6.18778 9.48124 10.1349 9.39972Z" fill="#00F2EA"/>
</svg>
