<svg width="24" height="24" viewBox="0 0 24 24" fill="none" xmlns="http://www.w3.org/2000/svg">
<path d="M23.4677 6.65153C23.3301 6.13903 23.0616 5.6718 22.689 5.29637C22.3164 4.92094 21.8527 4.6504 21.3441 4.5117C19.482 4 11.9878 4 11.9878 4C11.9878 4 4.49321 4.01549 2.63114 4.52719C2.1225 4.6659 1.6588 4.93645 1.28622 5.3119C0.913638 5.68735 0.64517 6.1546 0.507551 6.66711C-0.0556826 10.0008 -0.274171 15.0806 0.523017 18.2809C0.66065 18.7934 0.929125 19.2607 1.30171 19.6361C1.67429 20.0115 2.13798 20.2821 2.6466 20.4208C4.50868 20.9325 12.0031 20.9325 12.0031 20.9325C12.0031 20.9325 19.4974 20.9325 21.3594 20.4208C21.868 20.2821 22.3317 20.0116 22.7043 19.6361C23.0769 19.2607 23.3454 18.7935 23.4831 18.2809C24.0771 14.9425 24.2602 9.86585 23.4677 6.65153Z" fill="#FF0000"/>
<path d="M9.60242 16.0946L15.8195 12.4662L9.60242 8.83783V16.0946Z" fill="white"/>
</svg>
