<svg width="40" height="40" viewBox="0 0 40 40" fill="none" xmlns="http://www.w3.org/2000/svg">
<path d="M19.7428 12.4287L20 12.5831L20.2572 12.4287L30 6.5831L39.5 12.2831V21.7169L20 33.4169L0.5 21.7169V12.2831L10 6.5831L19.7428 12.4287ZM14 18.5H14.5V18V16V15.5H14H10.5V12V11.5H10H8H7.5V12V15.5H4H3.5V16V18V18.5H4H7.5V22V22.5H8H10H10.5V22V18.5H14ZM24.2322 21.7678C24.7011 22.2366 25.337 22.5 26 22.5C27.3761 22.5 28.5 21.3761 28.5 20C28.5 18.6239 27.3761 17.5 26 17.5C24.6239 17.5 23.5 18.6239 23.5 20C23.5 20.663 23.7634 21.2989 24.2322 21.7678ZM31.0433 18.3097C31.3466 18.4353 31.6717 18.5 32 18.5C33.3761 18.5 34.5 17.3761 34.5 16C34.5 14.6239 33.3761 13.5 32 13.5C30.6239 13.5 29.5 14.6239 29.5 16C29.5 16.3283 29.5647 16.6534 29.6903 16.9567C29.8159 17.26 30.0001 17.5356 30.2322 17.7678C30.4644 17.9999 30.74 18.1841 31.0433 18.3097Z" stroke="#BBBBBB"/>
</svg>
